<svg width="36" height="36" viewBox="0 0 36 36" fill="none" xmlns="http://www.w3.org/2000/svg">
<g id="grommet-icons:amex" clip-path="url(#clip0_3237_1895)">
<path id="Vector" fill-rule="evenodd" clip-rule="evenodd" d="M6.49505 17.9585L5.26941 14.9736L4.05123 17.9585H6.49505ZM18.2418 21.1885L18.2344 15.3264L15.6396 21.1885H14.0701L11.4664 15.3204V21.1885H7.82832L7.14076 19.519H3.4145L2.71946 21.1885H0.776367L3.98098 13.7031H6.63854L9.68173 20.7909V13.7031H12.6024L14.9445 18.7806L17.0954 13.7031H20.0758V21.1885H18.2418ZM22.9247 19.658V18.1678H26.8527V16.6402H22.9247V15.2785H27.4103L29.3683 17.4608L27.3236 19.658H22.9247ZM35.0481 21.2184H32.7224L30.5192 18.7387L28.2293 21.2184H21.1415V13.73H28.3385L30.5401 16.1843L32.8165 13.73H35.1542L31.6761 17.4742L35.0481 21.2184Z" fill="#F823A1"/>
</g>
<defs>
<clipPath id="clip0_3237_1895">
<rect width="35.8726" height="35.8726" fill="white" transform="translate(0.046875 0.0742188)"/>
</clipPath>
</defs>
</svg>
