<svg width="31" height="31" viewBox="0 0 31 31" fill="none" xmlns="http://www.w3.org/2000/svg">
<g id="cib:apple-pay" clip-path="url(#clip0_3237_1900)">
<path id="Vector" d="M5.61641 10.7651C5.25512 11.1956 4.67956 11.5367 4.10496 11.4867C4.02905 10.9064 4.31539 10.2847 4.64593 9.89937C5.00626 9.46025 5.63659 9.14508 6.14777 9.11914C6.20831 9.72545 5.97193 10.3212 5.61737 10.7651H5.61641ZM6.14201 11.6011C5.30701 11.5501 4.5902 12.0805 4.19432 12.0805C3.78979 12.0805 3.18348 11.6261 2.52336 11.6414C1.66723 11.652 0.86682 12.1411 0.431545 12.928C-0.474558 14.4933 0.196131 16.8109 1.06668 18.087C1.49235 18.7173 2.00161 19.4082 2.67326 19.3889C3.3084 19.363 3.56399 18.969 4.3298 18.969C5.10523 18.969 5.32527 19.3889 6.00172 19.3736C6.69643 19.363 7.13651 18.7432 7.56218 18.1129C8.04742 17.3971 8.24728 16.6956 8.25785 16.661C8.24728 16.6457 6.91167 16.1306 6.90206 14.5788C6.89149 13.2768 7.95229 12.6571 7.99745 12.6215C7.40171 11.7212 6.46102 11.6261 6.14105 11.602L6.14201 11.6011ZM10.9617 9.83883V19.3082H12.4175V16.0711H14.4305C16.2667 16.0711 17.5581 14.795 17.5581 12.953C17.5581 11.1072 16.2927 9.83979 14.4805 9.83979L10.9617 9.83883ZM12.4175 11.0803H14.0942C15.3549 11.0803 16.0765 11.7606 16.0765 12.9569C16.0765 14.1532 15.3549 14.8392 14.0846 14.8392H12.4175V11.0803ZM20.2092 19.3784C21.1249 19.3784 21.9705 18.9133 22.3567 18.1715H22.3875V19.3082H23.7327V14.5932C23.7327 13.2326 22.6527 12.3477 20.9856 12.3477C19.4443 12.3477 18.3028 13.2432 18.2634 14.4693H19.5692C19.6797 13.8841 20.2101 13.5036 20.9462 13.5036C21.8369 13.5036 22.3327 13.9235 22.3327 14.6951V15.2149L20.5215 15.3254C18.8294 15.4302 17.9185 16.1258 17.9185 17.3423C17.9185 18.5684 18.8601 19.3793 20.2101 19.3793L20.2092 19.3784ZM20.6051 18.257C19.8287 18.257 19.3338 17.8813 19.3338 17.3067C19.3338 16.711 19.8095 16.3603 20.7146 16.3045L22.3317 16.2046V16.7398C22.3317 17.6267 21.5861 18.257 20.5993 18.257H20.6051ZM25.5295 21.8853C26.9449 21.8853 27.6117 21.3347 28.1921 19.6782L30.7442 12.4418H29.2683L27.557 18.0312H27.5262L25.8149 12.4418H24.2938L26.7566 19.3332L26.6259 19.7531C26.4001 20.4594 26.0407 20.7332 25.3998 20.7332C25.2845 20.7332 25.0645 20.7188 24.9741 20.7092V21.8459C25.0587 21.8699 25.42 21.8805 25.5247 21.8805L25.5295 21.8853Z" fill="#F823A1"/>
</g>
<defs>
<clipPath id="clip0_3237_1900">
<rect width="30.7479" height="30.7479" fill="white" transform="translate(-0.00292969 0.150391)"/>
</clipPath>
</defs>
</svg>
