<svg width="37" height="37" viewBox="0 0 37 37" fill="none" xmlns="http://www.w3.org/2000/svg">
<path d="M14.9465 5.669C14.3562 5.20439 13.8758 4.59913 13.5769 3.90393C13.3174 3.3006 13.1483 2.62703 13.2132 1.98943C13.2656 1.47741 13.7039 1.02954 14.2236 0.973414C14.3386 0.961005 14.3659 0.967323 14.4023 0.968234C14.4552 0.972219 14.4683 0.97216 14.5207 0.9803C15.0302 1.05954 15.4537 1.52044 15.4827 2.04248C15.5191 2.69778 15.7434 3.34295 16.2204 3.78171C16.632 4.15997 17.1824 4.37679 17.7465 4.38214C17.8649 4.38254 17.9833 4.3851 18.1012 4.38789C18.1666 4.38475 18.2321 4.38294 18.2976 4.38231C18.3198 4.38225 18.3414 4.38225 18.3636 4.38231C18.4683 4.38328 18.5731 4.38772 18.6778 4.3954C19.0216 4.39096 19.3523 4.36079 19.6569 4.25372C20.5369 3.94371 21.1733 3.06198 21.1767 2.1014L21.1784 2.04186C21.228 1.43699 21.7773 0.935047 22.3784 0.968575C22.9692 1.00153 23.4611 1.53934 23.4531 2.1639C23.436 3.51873 22.7791 4.83877 21.7232 5.67793C22.0625 5.97405 22.363 6.31434 22.6118 6.69185C23.0899 7.41756 23.3728 8.26902 23.4377 9.13584C26.4285 9.67758 29.2251 11.2973 31.1434 13.7C31.8948 14.641 32.5078 15.6877 32.9678 16.8079C33.2979 17.618 33.6787 18.4211 33.9178 19.238C34.5741 21.4825 33.977 24.0503 32.3439 25.7802C30.8406 27.3723 28.5386 28.1652 26.3596 27.8186C25.3429 27.6569 24.3883 27.2448 23.4981 26.7034L23.4975 26.7046C23.2408 27.0786 22.9431 27.419 22.6129 27.7235C22.2816 28.032 21.9184 28.3058 21.5296 28.5392L19.4195 35.4531C19.2567 35.9403 18.77 36.283 18.2725 36.2574C17.8092 36.2341 17.3908 35.9005 17.2416 35.4531L15.1355 28.5517C14.7598 28.328 14.4074 28.065 14.0852 27.7685C13.9765 27.6689 13.8718 27.5658 13.771 27.4582C13.6828 27.3643 13.5974 27.2681 13.5149 27.1691L13.5137 27.1674L13.5086 27.1611L13.5018 27.1531L13.5006 27.1514C13.3822 27.008 13.2695 26.8588 13.1637 26.7046L13.1625 26.7029C12.2814 27.2385 11.3342 27.6495 10.3335 27.8134C8.80279 28.0645 7.18561 27.7685 5.8428 26.9892C4.15958 26.0118 2.93573 24.2734 2.58395 22.3602C2.35398 21.1107 2.48831 19.7992 2.95735 18.6198C3.36322 17.6134 3.73549 16.5899 4.2404 15.6421C5.81091 12.6958 8.58705 10.4144 11.822 9.45654C12.2842 9.31964 12.7538 9.20956 13.2286 9.12656C13.3407 7.81659 13.9651 6.55358 14.9465 5.669ZM20.5363 11.2121C20.1806 11.2123 19.8248 11.213 19.469 11.213C19.4696 12.6315 19.4707 14.05 19.469 15.4685C19.4821 15.6239 19.4747 15.7805 19.4776 15.937C19.5203 17.0032 19.7275 18.058 20.0798 19.0615C20.7879 21.0641 22.0795 22.8646 23.7793 24.1425L23.7878 24.1499C24.7828 24.9041 25.8979 25.5263 27.0939 25.6139C28.2728 25.6999 29.4824 25.2969 30.3738 24.5193C31.761 23.3086 32.287 21.2189 31.5902 19.4668C31.1969 18.4923 30.844 17.4961 30.3419 16.5848C28.591 13.4087 25.1027 11.2759 21.3987 11.2143L21.3737 11.2139L21.323 11.2134L21.2758 11.213H21.2661L20.5363 11.2121ZM17.1921 15.5294V11.213H15.4229H15.4155C12.3138 11.2174 9.24508 12.6808 7.29717 15.1207C6.68069 15.892 6.17863 16.7499 5.80066 17.6698C5.3652 18.7399 4.80622 19.7975 4.75385 20.924C4.67245 22.6596 5.69024 24.3992 7.26587 25.1694C8.54323 25.7938 10.1109 25.7392 11.374 25.0868C13.8644 23.7998 15.7924 21.4933 16.6713 18.798C17.0088 17.7489 17.1898 16.6451 17.1921 15.5294Z" fill="#FFF301"/>
</svg>
