<svg width="32" height="32" viewBox="0 0 32 32" fill="none" xmlns="http://www.w3.org/2000/svg">
<g id="Box">
<path id="Vector" d="M16.512 2.98438V2.98838C16.506 2.98826 16.5 2.98826 16.494 2.98838C16.4777 2.98754 16.4613 2.98754 16.445 2.98838C16.4285 2.99086 16.4122 2.99419 16.396 2.99838C16.3797 3.00286 16.3637 3.0082 16.348 3.01438C16.3307 3.01909 16.3137 3.02476 16.297 3.03138L4.357 8.44338C4.25417 8.47373 4.16373 8.53765 4.09934 8.6255C4.03494 8.71335 4.00007 8.82036 4 8.93038V23.7794C3.99975 23.8762 4.02646 23.971 4.07696 24.0527C4.12747 24.1344 4.19966 24.1995 4.285 24.2404L16.285 29.9534C16.338 29.9785 16.3949 29.9937 16.453 29.9984C16.457 29.9991 16.461 29.9998 16.465 30.0004C16.469 30.0004 16.473 30.0004 16.477 30.0004C16.5569 30.0043 16.6365 29.9882 16.709 29.9534L28.713 24.2364C28.7986 24.1959 28.8711 24.1311 28.9219 24.0496C28.9728 23.968 28.9999 23.8732 29 23.7764V8.91738C28.9997 8.79831 28.9586 8.68316 28.884 8.59211C28.8094 8.50105 28.706 8.4399 28.592 8.41938H28.59L16.703 3.02338C16.6425 2.99745 16.5776 2.98419 16.512 2.98438ZM16.51 4.04438L27.152 8.87338L22.632 10.5184C22.6025 10.4958 22.5706 10.4767 22.537 10.4614L12.451 5.88538L16.51 4.04438ZM11.23 6.43838L11.287 6.46338L11.337 6.48638L11.395 6.51238L21.291 11.0044L16.486 12.7524L5.838 8.88138L11.23 6.43738V6.43838ZM28.014 9.63538V23.4504L16.994 28.6964V13.6434L28.014 9.63538ZM4.986 9.64638L15.998 13.6524V28.6974L4.986 23.4554V9.64738V9.64638Z" fill="white" stroke="white" stroke-width="0.888889"/>
</g>
</svg>
