<svg width="31" height="12" viewBox="0 0 31 12" fill="none" xmlns="http://www.w3.org/2000/svg">
<path id="Vector" d="M30.7977 2.90431L26.7843 11.6727H25.5429L27.0341 8.60426L24.3918 2.90337H25.6976L27.6097 7.27299H27.6347L29.4862 2.90337L30.7977 2.90431ZM14.1234 5.61571V9.16796H12.8618V0.399599H16.1998C16.9921 0.378361 17.7637 0.648964 18.3616 1.15778C18.9526 1.63222 19.2773 2.30303 19.2677 3.01235C19.2718 3.36932 19.1922 3.72246 19.0352 4.04473C18.8781 4.367 18.6477 4.64986 18.3616 4.87162C17.7813 5.3705 17.0607 5.61571 16.1998 5.61571H14.1234ZM14.1186 1.48097V4.53904H16.2305C16.6903 4.55516 17.138 4.39348 17.4767 4.08902C17.8024 3.80529 17.9821 3.41822 17.9821 3.01705C17.9821 2.61118 17.8015 2.22411 17.4767 1.94508C17.3108 1.79072 17.1153 1.67011 16.9013 1.59028C16.6874 1.51044 16.4594 1.47297 16.2305 1.48003L14.1186 1.48097ZM21.7947 2.90431C22.5951 2.90431 23.2312 3.12415 23.6962 3.56008C24.1612 3.99601 24.3918 4.59259 24.3918 5.35077V8.9763H23.3513V8.15894H23.3061C22.8555 8.82974 22.2597 9.16702 21.5141 9.16702C20.8733 9.16702 20.3429 8.97631 19.9124 8.58923C19.7047 8.40947 19.5394 8.18776 19.428 7.93941C19.3165 7.69107 19.2615 7.42202 19.2668 7.15085C19.2668 6.54394 19.4916 6.06009 19.947 5.69745C20.3977 5.34044 21.003 5.15911 21.7582 5.15911C22.4039 5.15911 22.9343 5.28125 23.3493 5.52082V5.26621C23.3507 5.08139 23.3116 4.89843 23.2347 4.72959C23.1578 4.56075 23.0449 4.40993 22.9035 4.28725C22.6187 4.02661 22.2424 3.88298 21.8524 3.88609C21.247 3.88609 20.7666 4.14539 20.4111 4.66399L19.4551 4.05708C19.9806 3.28857 20.7608 2.90243 21.7918 2.90243L21.7947 2.90431ZM20.389 7.17622C20.3869 7.31544 20.4184 7.4532 20.481 7.57826C20.5436 7.70331 20.6355 7.81214 20.7493 7.89588C20.9895 8.0866 21.2903 8.18994 21.5949 8.1843C22.0503 8.1843 22.4904 7.99828 22.8161 7.6704C23.161 7.35754 23.357 6.91692 23.357 6.45656C23.0169 6.18223 22.5461 6.04506 21.9408 6.04506C21.4949 6.04506 21.1298 6.1531 20.8348 6.36825C20.5399 6.58809 20.389 6.85303 20.389 7.17528V7.17622ZM5.28084 0.399599C6.57451 0.384343 7.82551 0.851661 8.77924 1.70644L7.28802 3.13543C6.74328 2.64125 6.02379 2.37284 5.28084 2.38664C4.6325 2.38975 4.00125 2.59028 3.47484 2.96037C2.94843 3.33045 2.55302 3.8517 2.34357 4.45167C2.12349 5.07305 2.12349 5.74874 2.34357 6.37013C2.55302 6.97009 2.94843 7.49134 3.47484 7.86143C4.00125 8.23152 4.6325 8.43205 5.28084 8.43515C5.98609 8.43515 6.59238 8.26416 7.06223 7.9607C7.33254 7.78858 7.56419 7.56446 7.74309 7.302C7.92199 7.03953 8.04438 6.74421 8.10281 6.43401H5.27988V4.50616H10.209C10.2695 4.84344 10.2993 5.18166 10.2993 5.52364C10.2993 7.05033 9.72854 8.34214 8.74273 9.21306C7.87701 9.97687 6.69134 10.4213 5.27988 10.4213C4.31646 10.4261 3.37035 10.1709 2.54563 9.68394C1.72092 9.19695 1.04956 8.49697 0.605417 7.661C0.240251 6.96436 0.0498047 6.19277 0.0498047 5.40996C0.0498047 4.62714 0.240251 3.85556 0.605417 3.15891C1.04903 2.32373 1.71947 1.62425 2.54309 1.13731C3.36671 0.650364 4.31165 0.39479 5.27411 0.39866L5.28084 0.399599Z" fill="#F823A1"/>
</svg>
