<svg width="32" height="32" viewBox="0 0 32 32" fill="none" xmlns="http://www.w3.org/2000/svg">
<g id="Image" clip-path="url(#clip0_2791_1537)">
<path id="Vector" d="M27 6H5C4.44772 6 4 6.44772 4 7V25C4 25.5523 4.44772 26 5 26H27C27.5523 26 28 25.5523 28 25V7C28 6.44772 27.5523 6 27 6Z" stroke="#1C1A1D" stroke-width="2" stroke-linecap="round" stroke-linejoin="round"/>
<path id="Vector_2" d="M19.5 14C20.3284 14 21 13.3284 21 12.5C21 11.6716 20.3284 11 19.5 11C18.6716 11 18 11.6716 18 12.5C18 13.3284 18.6716 14 19.5 14Z" fill="#1C1A1D"/>
<path id="Vector_3" d="M18.4138 20.5002L21.6251 17.2927C21.8126 17.1053 22.0668 17 22.3319 17C22.597 17 22.8513 17.1053 23.0388 17.2927L28.0001 22.2577" stroke="#1C1A1D" stroke-width="2" stroke-linecap="round" stroke-linejoin="round"/>
<path id="Vector_4" d="M4 21.0861L10.7925 14.2923C10.8854 14.1993 10.9957 14.1256 11.1171 14.0753C11.2385 14.0249 11.3686 13.999 11.5 13.999C11.6314 13.999 11.7615 14.0249 11.8829 14.0753C12.0043 14.1256 12.1146 14.1993 12.2075 14.2923L23.9137 25.9998" stroke="#1C1A1D" stroke-width="2" stroke-linecap="round" stroke-linejoin="round"/>
</g>
<defs>
<clipPath id="clip0_2791_1537">
<rect width="32" height="32" fill="white"/>
</clipPath>
</defs>
</svg>
