<svg width="73" height="52" viewBox="0 0 73 52" fill="none" xmlns="http://www.w3.org/2000/svg">
<g id="Logo" clip-path="url(#clip0_2794_2074)">
<path id="Vector" fill-rule="evenodd" clip-rule="evenodd" d="M18.0895 8.26037L0 26.168C3.61823 29.7499 7.75149 32.7686 12.2579 35.1303C13.5035 38.4012 15.456 41.4686 18.1152 44.1011C28.1201 54.0053 44.341 54.0053 54.3457 44.1011C57.005 41.4686 58.9575 38.4012 60.2031 35.1301C64.7094 32.7686 68.8428 29.7499 72.4609 26.168L54.3861 8.27493C54.3727 8.26154 54.3593 8.24816 54.3457 8.23479C44.341 -1.66941 28.1201 -1.66941 18.1152 8.23479C18.1067 8.24332 18.0981 8.25183 18.0895 8.26037ZM52.6148 38.3611C47.3433 40.1223 41.8094 41.0243 36.2305 41.0243C30.6515 41.0243 25.1179 40.1223 19.8463 38.3611C20.4175 39.1113 21.0481 39.8312 21.7383 40.5145C29.7421 48.4379 42.7188 48.4379 50.7227 40.5145C51.4128 39.8312 52.0436 39.1113 52.6148 38.3611ZM22.1098 11.4627C23.469 12.3517 24.9142 13.1123 26.4265 13.7325C29.5347 15.007 32.8661 15.663 36.2305 15.663C39.5948 15.663 42.9262 15.007 46.0344 13.7325C47.5467 13.1123 48.9919 12.3517 50.3513 11.4627C42.4473 4.01762 30.0137 4.01763 22.1098 11.4627Z" fill="#3B4158"/>
</g>
<defs>
<clipPath id="clip0_2794_2074">
<rect width="72.4609" height="50.7227" fill="white" transform="translate(0 0.806641)"/>
</clipPath>
</defs>
</svg>
