<svg width="203" height="53" viewBox="0 0 203 53" fill="none" xmlns="http://www.w3.org/2000/svg">
<path d="M21.4098 8.12088C20.5642 7.45536 19.876 6.58837 19.448 5.59254C19.0761 4.72831 18.834 3.76347 18.9269 2.85015C19.002 2.11672 19.6298 1.47517 20.3743 1.39477C20.539 1.377 20.5781 1.38605 20.6303 1.38735C20.7061 1.39306 20.7249 1.39298 20.7999 1.40464C21.5296 1.51814 22.1363 2.17835 22.1779 2.92614C22.2301 3.86481 22.5513 4.78897 23.2346 5.41747C23.8241 5.95929 24.6126 6.26988 25.4207 6.27754C25.5903 6.27811 25.7599 6.28178 25.9286 6.28577C26.0224 6.28129 26.1162 6.27868 26.2099 6.27778C26.2417 6.2777 26.2727 6.2777 26.3045 6.27778C26.4546 6.27917 26.6046 6.28553 26.7546 6.29654C27.2471 6.29018 27.7209 6.24696 28.1571 6.09359C29.4177 5.64953 30.3293 4.3865 30.3342 3.01054L30.3366 2.92525C30.4076 2.05882 31.1944 1.33982 32.0555 1.38784C32.9018 1.43505 33.6063 2.20543 33.5949 3.10007C33.5704 5.04077 32.6295 6.93164 31.1169 8.13368C31.6029 8.55784 32.0334 9.04528 32.3897 9.58605C33.0747 10.6256 33.4799 11.8452 33.5729 13.0869C37.8569 13.8629 41.8629 16.1831 44.6107 19.6248C45.687 20.9726 46.5652 22.472 47.224 24.0767C47.697 25.2369 48.2425 26.3875 48.5849 27.5575C49.5251 30.7726 48.6697 34.4508 46.3304 36.9287C44.1769 39.2094 40.8795 40.3452 37.7582 39.8486C36.302 39.6171 34.9346 39.0267 33.6593 38.2513L33.6585 38.2529C33.2908 38.7886 32.8643 39.2762 32.3914 39.7125C31.9168 40.1544 31.3966 40.5466 30.8397 40.8809L27.8171 50.7846C27.5839 51.4825 26.8867 51.9734 26.1741 51.9367C25.5103 51.9033 24.9111 51.4255 24.6974 50.7846L21.6805 40.8988C21.1423 40.5784 20.6376 40.2017 20.1761 39.7769C20.0204 39.6342 19.8703 39.4866 19.726 39.3325C19.5996 39.198 19.4773 39.0602 19.3591 38.9183L19.3574 38.9158L19.3501 38.9069L19.3403 38.8955L19.3387 38.893C19.1691 38.6875 19.0077 38.4739 18.856 38.2529L18.8544 38.2505C17.5921 39.0178 16.2353 39.6065 14.8019 39.8413C12.6093 40.2009 10.2928 39.7769 8.36934 38.6606C5.95825 37.2606 4.20517 34.7704 3.70127 32.0299C3.37185 30.2401 3.56427 28.3615 4.23614 26.672C4.81751 25.2304 5.35078 23.7644 6.07402 22.4067C8.32367 18.1863 12.3003 14.9184 16.9341 13.5463C17.5962 13.3502 18.2689 13.1925 18.949 13.0736C19.1096 11.1972 20.0041 9.38799 21.4098 8.12088ZM29.4169 16.061C28.9072 16.0613 28.3976 16.0622 27.888 16.0622C27.8888 18.0942 27.8905 20.1261 27.888 22.1581C27.9068 22.3807 27.8962 22.6049 27.9002 22.8291C27.9614 24.3563 28.2582 25.8672 28.7629 27.3048C29.7773 30.1733 31.6274 32.7523 34.0621 34.5829L34.0743 34.5935C35.4996 35.6739 37.097 36.5651 38.8101 36.6907C40.4987 36.8138 42.2314 36.2365 43.5083 35.1227C45.4954 33.3883 46.2488 30.3951 45.2508 27.8853C44.6874 26.4894 44.1818 25.0625 43.4627 23.757C40.9546 19.2074 35.9579 16.1524 30.6522 16.0642L30.6163 16.0636L30.5437 16.0628L30.476 16.0623H30.4622L29.4169 16.061ZM24.6265 22.2453V16.0622H22.0923H22.0817C17.6386 16.0686 13.2429 18.1648 10.4526 21.6599C9.56957 22.7647 8.8504 23.9935 8.30899 25.3111C7.68522 26.8441 6.88452 28.3591 6.8095 29.9727C6.6929 32.4588 8.15082 34.9506 10.4078 36.0538C12.2375 36.9483 14.4831 36.87 16.2924 35.9356C19.8597 34.092 22.6215 30.7881 23.8804 26.9272C24.3639 25.4245 24.6232 23.8435 24.6265 22.2453Z" fill="#FFF301"/>
<path d="M60.6901 41V11.744H71.2636C73.7811 11.744 75.6626 12.3667 76.9081 13.6122C78.1801 14.8577 78.8161 16.7392 78.8161 19.2567C78.8161 20.4757 78.6306 21.5357 78.2596 22.4367C77.8886 23.3377 77.3851 24.0797 76.7491 24.6627C76.1396 25.2192 75.4506 25.6035 74.6821 25.8155C75.2121 25.948 75.7686 26.1732 76.3516 26.4912C76.9611 26.7827 77.5309 27.2067 78.0609 27.7632C78.5909 28.3197 79.0149 29.022 79.3329 29.87C79.6774 30.718 79.8496 31.725 79.8496 32.891C79.8496 34.958 79.5184 36.5877 78.8559 37.7802C78.1934 38.9462 77.2526 39.781 76.0336 40.2845C74.8146 40.7615 73.3571 41 71.6611 41H60.6901ZM63.8701 38.1777H71.5816C72.6416 38.1777 73.5559 38.0187 74.3244 37.7007C75.1194 37.3562 75.7289 36.7732 76.1529 35.9517C76.6034 35.1037 76.8286 33.9112 76.8286 32.3742C76.8286 31.2877 76.5901 30.3602 76.1131 29.5917C75.6626 28.8232 75.0399 28.2402 74.2449 27.8427C73.4499 27.4187 72.5621 27.2067 71.5816 27.2067H63.8701V38.1777ZM63.8701 24.7025H71.4624C72.7079 24.7025 73.7281 24.252 74.5231 23.351C75.3446 22.45 75.7686 21.231 75.7951 19.694C75.8481 17.8125 75.4374 16.5007 74.5629 15.7587C73.7149 14.9902 72.6151 14.606 71.2636 14.606H63.8701V24.7025ZM90.8421 41.159C90.2061 41.159 89.5303 41.106 88.8148 41C88.0993 40.8675 87.4236 40.6157 86.7876 40.2447C86.1516 39.8737 85.6348 39.3172 85.2373 38.5752C84.8398 37.8067 84.6411 36.7732 84.6411 35.4747V17.627C84.6411 16.4875 84.8001 15.5467 85.1181 14.8047C85.4626 14.0362 85.9131 13.44 86.4696 13.016C87.0261 12.5655 87.6488 12.2475 88.3378 12.062C89.0268 11.85 89.7158 11.744 90.4048 11.744C92.0478 11.7705 93.5716 11.8102 94.9761 11.8632C96.3806 11.8897 97.7056 11.9295 98.9511 11.9825C100.223 12.009 101.455 12.0487 102.648 12.1017V14.6457H91.1998C90.1663 14.6457 89.3448 14.924 88.7353 15.4805C88.1258 16.037 87.8211 16.9247 87.8211 18.1437V25.0602L100.899 25.259V27.6837L87.8211 27.8825V34.7592C87.8211 35.7397 87.9801 36.4817 88.2981 36.9852C88.6426 37.4887 89.0931 37.82 89.6496 37.979C90.2061 38.138 90.7758 38.2175 91.3588 38.2175H102.648V40.7615C101.429 40.841 100.144 40.9072 98.7921 40.9602C97.4671 41.0133 96.1288 41.053 94.7773 41.0795C93.4523 41.106 92.1406 41.1325 90.8421 41.159ZM113.784 41.159C113.148 41.159 112.472 41.106 111.756 41C111.041 40.8675 110.365 40.6157 109.729 40.2447C109.093 39.8737 108.576 39.3172 108.179 38.5752C107.781 37.8067 107.583 36.7732 107.583 35.4747V17.627C107.583 16.4875 107.742 15.5467 108.06 14.8047C108.404 14.0362 108.855 13.44 109.411 13.016C109.968 12.5655 110.59 12.2475 111.279 12.062C111.968 11.85 112.657 11.744 113.346 11.744C114.989 11.7705 116.513 11.8102 117.918 11.8632C119.322 11.8897 120.647 11.9295 121.893 11.9825C123.165 12.009 124.397 12.0487 125.589 12.1017V14.6457H114.141C113.108 14.6457 112.286 14.924 111.677 15.4805C111.067 16.037 110.763 16.9247 110.763 18.1437V25.0602L123.84 25.259V27.6837L110.763 27.8825V34.7592C110.763 35.7397 110.922 36.4817 111.24 36.9852C111.584 37.4887 112.035 37.82 112.591 37.979C113.148 38.138 113.717 38.2175 114.3 38.2175H125.589V40.7615C124.37 40.841 123.085 40.9072 121.734 40.9602C120.409 41.0133 119.07 41.053 117.719 41.0795C116.394 41.106 115.082 41.1325 113.784 41.159ZM129.203 41L139.22 11.744H143.275L153.292 41H150.032L147.091 32.6525H135.325L132.463 41H129.203ZM136.12 29.7905H146.296L141.248 14.5265L136.12 29.7905ZM166.005 41.2385C165.422 41.2385 164.72 41.212 163.898 41.159C163.103 41.1325 162.282 41.0795 161.434 41C160.586 40.947 159.777 40.8807 159.009 40.8012C158.267 40.7217 157.644 40.629 157.141 40.523V38.0982C157.803 38.1512 158.611 38.2042 159.565 38.2572C160.519 38.3102 161.54 38.35 162.626 38.3765C163.739 38.403 164.826 38.4162 165.886 38.4162C167.078 38.4162 168.151 38.297 169.105 38.0585C170.059 37.82 170.815 37.3827 171.371 36.7467C171.954 36.1107 172.246 35.1965 172.246 34.004V32.0165C172.246 30.665 171.901 29.6447 171.212 28.9557C170.523 28.2402 169.41 27.8825 167.873 27.8825H164.733C162.321 27.8825 160.427 27.3525 159.049 26.2925C157.697 25.2325 157.021 23.404 157.021 20.807V19.1375C157.021 16.3815 157.763 14.4205 159.247 13.2545C160.731 12.0885 162.825 11.5055 165.528 11.5055C166.376 11.5055 167.33 11.5585 168.39 11.6645C169.45 11.744 170.47 11.85 171.451 11.9825C172.458 12.0885 173.292 12.2077 173.955 12.3402V14.765C172.789 14.659 171.464 14.5662 169.98 14.4867C168.522 14.4072 167.144 14.3675 165.846 14.3675C164.653 14.3675 163.62 14.5132 162.745 14.8047C161.871 15.0697 161.195 15.56 160.718 16.2755C160.268 16.9645 160.042 17.9582 160.042 19.2567V20.6082C160.042 22.2247 160.466 23.3377 161.314 23.9472C162.162 24.5567 163.342 24.8615 164.852 24.8615H168.231C169.847 24.8615 171.172 25.153 172.206 25.736C173.239 26.319 174.008 27.1272 174.511 28.1607C175.015 29.1677 175.267 30.3337 175.267 31.6587V33.9245C175.267 35.8855 174.843 37.396 173.995 38.456C173.173 39.516 172.06 40.2447 170.656 40.6422C169.278 41.0397 167.727 41.2385 166.005 41.2385ZM188.31 41V31.301L179.008 11.744H182.307L189.939 28.121L197.571 11.744H200.751L191.49 31.301V41H188.31Z" fill="#FFF301"/>
<path d="M60.6901 41H59.862V41.8281H60.6901V41ZM60.6901 11.744V10.9159H59.862V11.744H60.6901ZM76.9081 13.6122L76.3225 14.1979L76.3288 14.204L76.9081 13.6122ZM78.2596 22.4367L79.0254 22.7521L79.0254 22.7521L78.2596 22.4367ZM76.7491 24.6627L77.3075 25.2743L77.3087 25.2732L76.7491 24.6627ZM74.6821 25.8155L74.4619 25.0172L71.4253 25.8549L74.4813 26.6189L74.6821 25.8155ZM76.3516 26.4912L75.9551 27.2183L75.9745 27.2288L75.9943 27.2383L76.3516 26.4912ZM78.0609 27.7632L77.4612 28.3344L78.0609 27.7632ZM79.3329 29.87L78.5575 30.1608L78.5614 30.1713L78.5657 30.1817L79.3329 29.87ZM78.8559 37.7803L79.576 38.1894L79.5798 38.1824L78.8559 37.7803ZM76.0336 40.2845L76.3354 41.0557L76.3426 41.0529L76.3498 41.0499L76.0336 40.2845ZM63.8701 38.1777H63.042V39.0059H63.8701V38.1777ZM74.3244 37.7008L74.6411 38.4661L74.6537 38.4606L74.3244 37.7008ZM76.1529 35.9517L75.4215 35.5632L75.417 35.5719L76.1529 35.9517ZM76.1131 29.5917L75.3987 30.0105L75.404 30.0196L75.4095 30.0285L76.1131 29.5917ZM74.2449 27.8427L73.8552 28.5734L73.8648 28.5786L73.8745 28.5834L74.2449 27.8427ZM63.8701 27.2067V26.3786H63.042V27.2067H63.8701ZM63.8701 24.7025H63.042V25.5306H63.8701V24.7025ZM74.5231 23.351L73.9111 22.793L73.9022 22.8031L74.5231 23.351ZM75.7951 19.694L74.9673 19.6707L74.9671 19.6797L75.7951 19.694ZM74.5629 15.7587L74.0068 16.3724L74.0168 16.3815L74.0271 16.3902L74.5629 15.7587ZM63.8701 14.606V13.7779H63.042V14.606H63.8701ZM61.5183 41V11.744H59.862V41H61.5183ZM60.6901 12.5721H71.2636V10.9159H60.6901V12.5721ZM71.2636 12.5721C73.6565 12.5721 75.2886 13.1639 76.3226 14.1978L77.4937 13.0267C76.0367 11.5696 73.9058 10.9159 71.2636 10.9159V12.5721ZM76.3288 14.204C77.3854 15.2386 77.988 16.8684 77.988 19.2567H79.6443C79.6443 16.6101 78.9749 14.4769 77.4875 13.0205L76.3288 14.204ZM77.988 19.2567C77.988 20.3938 77.8148 21.3421 77.4939 22.1214L79.0254 22.7521C79.4465 21.7294 79.6443 20.5577 79.6443 19.2567H77.988ZM77.4939 22.1214C77.1631 22.9247 76.7251 23.5614 76.1896 24.0523L77.3087 25.2732C78.0452 24.5981 78.6142 23.7508 79.0254 22.7521L77.4939 22.1214ZM76.1908 24.0512C75.6742 24.5229 75.1 24.8412 74.4619 25.0172L74.9024 26.6138C75.8012 26.3658 76.6051 25.9156 77.3075 25.2743L76.1908 24.0512ZM74.4813 26.6189C74.9303 26.7311 75.4211 26.927 75.9551 27.2183L76.7482 25.7642C76.1162 25.4195 75.494 25.1648 74.883 25.0121L74.4813 26.6189ZM75.9943 27.2383C76.5014 27.4809 76.9912 27.8408 77.4612 28.3344L78.6606 27.1921C78.0706 26.5727 77.4209 26.0846 76.7089 25.7442L75.9943 27.2383ZM77.4612 28.3344C77.9019 28.7971 78.2717 29.3987 78.5575 30.1608L80.1083 29.5792C79.7581 28.6453 79.2799 27.8424 78.6606 27.1921L77.4612 28.3344ZM78.5657 30.1817C78.8606 30.9076 79.0215 31.8038 79.0215 32.891H80.6778C80.6778 31.6462 80.4942 30.5284 80.1001 29.5583L78.5657 30.1817ZM79.0215 32.891C79.0215 34.8839 78.6998 36.356 78.132 37.3781L79.5798 38.1824C80.337 36.8195 80.6778 35.0321 80.6778 32.891H79.0215ZM78.1359 37.3711C77.5629 38.3796 76.7629 39.0873 75.7175 39.5191L76.3498 41.0499C77.7424 40.4747 78.8239 39.5129 79.5759 38.1894L78.1359 37.3711ZM75.7319 39.5133C74.6328 39.9434 73.2829 40.1719 71.6611 40.1719V41.8281C73.4314 41.8281 74.9965 41.5796 76.3354 41.0557L75.7319 39.5133ZM71.6611 40.1719H60.6901V41.8281H71.6611V40.1719ZM63.8701 39.0059H71.5816V37.3496H63.8701V39.0059ZM71.5816 39.0059C72.7217 39.0059 73.7487 38.8352 74.641 38.466L74.0078 36.9355C73.3631 37.2023 72.5616 37.3496 71.5816 37.3496V39.0059ZM74.6537 38.4606C75.6362 38.0348 76.3835 37.3106 76.8888 36.3316L75.417 35.5719C75.0743 36.2359 74.6026 36.6777 73.9951 36.9409L74.6537 38.4606ZM76.8842 36.3403C77.4254 35.3216 77.6568 33.9738 77.6568 32.3742H76.0005C76.0005 33.8487 75.7814 34.8859 75.4216 35.5632L76.8842 36.3403ZM77.6568 32.3742C77.6568 31.1647 77.3902 30.0789 76.8168 29.155L75.4095 30.0285C75.7901 30.6416 76.0005 31.4108 76.0005 32.3742H77.6568ZM76.8276 29.1729C76.2962 28.2664 75.554 27.5714 74.6152 27.102L73.8745 28.5834C74.5258 28.9091 75.0291 29.3801 75.3987 30.0105L76.8276 29.1729ZM74.6346 27.112C73.7093 26.6185 72.6858 26.3786 71.5816 26.3786V28.0349C72.4385 28.0349 73.1905 28.219 73.8552 28.5734L74.6346 27.112ZM71.5816 26.3786H63.8701V28.0349H71.5816V26.3786ZM63.042 27.2067V38.1777H64.6983V27.2067H63.042ZM63.8701 25.5306H71.4624V23.8744H63.8701V25.5306ZM71.4624 25.5306C72.9356 25.5306 74.1855 24.9854 75.1441 23.8989L73.9022 22.8031C73.2708 23.5186 72.4802 23.8744 71.4624 23.8744V25.5306ZM75.1351 23.9089C76.125 22.8233 76.5941 21.3924 76.6231 19.7083L74.9671 19.6797C74.9432 21.0695 74.5643 22.0767 73.9112 22.793L75.1351 23.9089ZM76.6229 19.7173C76.6785 17.7435 76.2599 16.1126 75.0987 15.1273L74.0271 16.3902C74.6149 16.8889 75.0177 17.8815 74.9674 19.6707L76.6229 19.7173ZM75.119 15.1451C74.0918 14.2142 72.7813 13.7779 71.2636 13.7779V15.4341C72.449 15.4341 73.338 15.7663 74.0068 16.3724L75.119 15.1451ZM71.2636 13.7779H63.8701V15.4341H71.2636V13.7779ZM63.042 14.606V24.7025H64.6983V14.606H63.042ZM90.8421 41.159V41.9871H90.8505L90.859 41.987L90.8421 41.159ZM88.8148 41L88.664 41.8143L88.6787 41.817L88.6935 41.8192L88.8148 41ZM86.7876 40.2447L87.2048 39.5294L86.7876 40.2447ZM85.2373 38.5752L84.5017 38.9557L84.5073 38.9663L85.2373 38.5752ZM85.1181 14.8047L84.3623 14.466L84.3569 14.4785L85.1181 14.8047ZM86.4696 13.016L86.9715 13.6747L86.9812 13.6673L86.9906 13.6597L86.4696 13.016ZM88.3378 12.062L88.5531 12.8616L88.5673 12.8578L88.5814 12.8535L88.3378 12.062ZM90.4048 11.744L90.4182 10.9159H90.4048V11.744ZM94.9761 11.8632L94.9448 12.6908L94.9526 12.6911L94.9605 12.6912L94.9761 11.8632ZM98.9511 11.9825L98.9159 12.8099L98.9248 12.8103L98.9338 12.8104L98.9511 11.9825ZM102.648 12.1017H103.476V11.3096L102.685 11.2744L102.648 12.1017ZM102.648 14.6457V15.4739H103.476V14.6457H102.648ZM88.7353 15.4805L89.2937 16.0921L89.2937 16.0921L88.7353 15.4805ZM87.8211 25.0602H86.993V25.8759L87.8085 25.8883L87.8211 25.0602ZM100.899 25.259H101.727V24.4434L100.911 24.431L100.899 25.259ZM100.899 27.6837L100.911 28.5118L101.727 28.4994V27.6837H100.899ZM87.8211 27.8825L87.8085 27.0545L86.993 27.0669V27.8825H87.8211ZM88.2981 36.9852L87.5979 37.4275L87.606 37.4403L87.6146 37.4529L88.2981 36.9852ZM89.6496 37.979L89.8771 37.1827L89.6496 37.979ZM102.648 38.2175H103.476V37.3894H102.648V38.2175ZM102.648 40.7615L102.702 41.5879L103.476 41.5374V40.7615H102.648ZM98.7921 40.9603L98.7596 40.1328L98.759 40.1328L98.7921 40.9603ZM94.7773 41.0795L94.7611 40.2515L94.7608 40.2515L94.7773 41.0795ZM90.8421 40.3309C90.2518 40.3309 89.6169 40.2817 88.9362 40.1808L88.6935 41.8192C89.4438 41.9303 90.1604 41.9871 90.8421 41.9871V40.3309ZM88.9656 40.1857C88.3451 40.0708 87.7594 39.8529 87.2048 39.5294L86.3703 40.9601C87.0878 41.3786 87.8535 41.6642 88.664 41.8143L88.9656 40.1857ZM87.2048 39.5294C86.7191 39.2461 86.3031 38.811 85.9673 38.1842L84.5073 38.9663C84.9665 39.8235 85.584 40.5014 86.3703 40.9601L87.2048 39.5294ZM85.9729 38.1948C85.6591 37.5881 85.4692 36.7017 85.4692 35.4747H83.813C83.813 36.8448 84.0206 38.0254 84.5018 38.9557L85.9729 38.1948ZM85.4692 35.4747V17.627H83.813V35.4747H85.4692ZM85.4692 17.627C85.4692 16.5568 85.6196 15.7367 85.8792 15.131L84.3569 14.4785C83.9805 15.3568 83.813 16.4182 83.813 17.627H85.4692ZM85.8737 15.1435C86.1732 14.4756 86.5453 13.9994 86.9715 13.6747L85.9677 12.3573C85.2809 12.8806 84.752 13.5969 84.3624 14.466L85.8737 15.1435ZM86.9906 13.6597C87.4575 13.2817 87.9762 13.017 88.5531 12.8616L88.1225 11.2623C87.3214 11.478 86.5946 11.8493 85.9485 12.3723L86.9906 13.6597ZM88.5814 12.8535C89.1951 12.6646 89.8021 12.5721 90.4048 12.5721V10.9159C89.6295 10.9159 88.8585 11.0353 88.0943 11.2705L88.5814 12.8535ZM90.3915 12.572C92.0295 12.5984 93.5472 12.638 94.9448 12.6908L95.0073 11.0357C93.596 10.9825 92.0662 10.9426 90.4182 10.916L90.3915 12.572ZM94.9605 12.6912C96.3592 12.7176 97.6777 12.7572 98.9159 12.8099L98.9863 11.1551C97.7335 11.1018 96.4019 11.0619 94.9917 11.0353L94.9605 12.6912ZM98.9338 12.8104C100.2 12.8368 101.425 12.8764 102.611 12.9291L102.685 11.2744C101.485 11.2211 100.246 11.1812 98.9683 11.1546L98.9338 12.8104ZM101.82 12.1017V14.6457H103.476V12.1017H101.82ZM102.648 13.8176H91.1998V15.4739H102.648V13.8176ZM91.1998 13.8176C90.014 13.8176 88.9749 14.1404 88.1769 14.8689L89.2937 16.0921C89.7148 15.7076 90.3187 15.4739 91.1998 15.4739V13.8176ZM88.1769 14.8689C87.3274 15.6446 86.993 16.804 86.993 18.1437H88.6492C88.6492 17.0455 88.9242 16.4294 89.2937 16.0921L88.1769 14.8689ZM86.993 18.1437V25.0602H88.6492V18.1437H86.993ZM87.8085 25.8883L100.886 26.087L100.911 24.431L87.8337 24.2322L87.8085 25.8883ZM100.071 25.259V27.6837H101.727V25.259H100.071ZM100.886 26.8557L87.8085 27.0545L87.8337 28.7105L100.911 28.5118L100.886 26.8557ZM86.993 27.8825V34.7592H88.6492V27.8825H86.993ZM86.993 34.7592C86.993 35.8054 87.1583 36.7315 87.5979 37.4275L88.9982 36.543C88.8018 36.232 88.6492 35.6741 88.6492 34.7592H86.993ZM87.6146 37.4529C88.0618 38.1064 88.6693 38.5602 89.4221 38.7753L89.8771 37.1827C89.5168 37.0798 89.2234 36.8711 88.9815 36.5176L87.6146 37.4529ZM89.4221 38.7753C90.0531 38.9556 90.6994 39.0456 91.3588 39.0456V37.3894C90.8522 37.3894 90.359 37.3204 89.8771 37.1827L89.4221 38.7753ZM91.3588 39.0456H102.648V37.3894H91.3588V39.0456ZM101.82 38.2175V40.7615H103.476V38.2175H101.82ZM102.594 39.9351C101.383 40.0141 100.105 40.08 98.7596 40.1328L98.8245 41.7877C100.182 41.7345 101.475 41.6679 102.702 41.5879L102.594 39.9351ZM98.759 40.1328C97.4397 40.1856 96.1071 40.2251 94.7611 40.2515L94.7936 41.9075C96.1506 41.8809 97.4944 41.8409 98.8252 41.7877L98.759 40.1328ZM94.7608 40.2515C93.4357 40.278 92.1238 40.3045 90.8252 40.331L90.859 41.987C92.1574 41.9605 93.469 41.934 94.7939 41.9075L94.7608 40.2515ZM113.784 41.159V41.9871H113.792L113.801 41.987L113.784 41.159ZM111.756 41L111.606 41.8143L111.62 41.817L111.635 41.8192L111.756 41ZM109.729 40.2447L110.146 39.5294L109.729 40.2447ZM108.179 38.5752L107.443 38.9557L107.449 38.9663L108.179 38.5752ZM108.06 14.8047L107.304 14.466L107.299 14.4785L108.06 14.8047ZM109.411 13.016L109.913 13.6747L109.923 13.6673L109.932 13.6597L109.411 13.016ZM111.279 12.062L111.495 12.8616L111.509 12.8578L111.523 12.8535L111.279 12.062ZM113.346 11.744L113.36 10.9159H113.346V11.744ZM117.918 11.8632L117.887 12.6908L117.894 12.6911L117.902 12.6912L117.918 11.8632ZM121.893 11.9825L121.858 12.8099L121.866 12.8103L121.875 12.8104L121.893 11.9825ZM125.589 12.1017H126.418V11.3096L125.626 11.2744L125.589 12.1017ZM125.589 14.6457V15.4739H126.418V14.6457H125.589ZM111.677 15.4805L112.235 16.0921V16.0921L111.677 15.4805ZM110.763 25.0602H109.935V25.8759L110.75 25.8883L110.763 25.0602ZM123.84 25.259H124.669V24.4434L123.853 24.431L123.84 25.259ZM123.84 27.6837L123.853 28.5118L124.669 28.4994V27.6837H123.84ZM110.763 27.8825L110.75 27.0545L109.935 27.0669V27.8825H110.763ZM111.24 36.9852L110.54 37.4275L110.548 37.4403L110.556 37.4529L111.24 36.9852ZM112.591 37.979L112.819 37.1827L112.591 37.979ZM125.589 38.2175H126.418V37.3894H125.589V38.2175ZM125.589 40.7615L125.643 41.5879L126.418 41.5374V40.7615H125.589ZM121.734 40.9603L121.701 40.1328L121.701 40.1328L121.734 40.9603ZM117.719 41.0795L117.703 40.2515L117.702 40.2515L117.719 41.0795ZM113.784 40.3309C113.193 40.3309 112.559 40.2817 111.878 40.1808L111.635 41.8192C112.385 41.9303 113.102 41.9871 113.784 41.9871V40.3309ZM111.907 40.1857C111.287 40.0708 110.701 39.8529 110.146 39.5294L109.312 40.9601C110.029 41.3786 110.795 41.6642 111.606 41.8143L111.907 40.1857ZM110.146 39.5294C109.661 39.2461 109.245 38.811 108.909 38.1842L107.449 38.9663C107.908 39.8235 108.526 40.5014 109.312 40.9601L110.146 39.5294ZM108.915 38.1948C108.601 37.5881 108.411 36.7017 108.411 35.4747H106.755C106.755 36.8448 106.962 38.0254 107.443 38.9557L108.915 38.1948ZM108.411 35.4747V17.627H106.755V35.4747H108.411ZM108.411 17.627C108.411 16.5568 108.561 15.7367 108.821 15.131L107.299 14.4785C106.922 15.3568 106.755 16.4182 106.755 17.627H108.411ZM108.815 15.1435C109.115 14.4756 109.487 13.9994 109.913 13.6747L108.909 12.3573C108.223 12.8806 107.694 13.5969 107.304 14.466L108.815 15.1435ZM109.932 13.6597C110.399 13.2817 110.918 13.017 111.495 12.8616L111.064 11.2623C110.263 11.478 109.536 11.8493 108.89 12.3723L109.932 13.6597ZM111.523 12.8535C112.137 12.6646 112.744 12.5721 113.346 12.5721V10.9159C112.571 10.9159 111.8 11.0353 111.036 11.2705L111.523 12.8535ZM113.333 12.572C114.971 12.5984 116.489 12.638 117.887 12.6908L117.949 11.0357C116.538 10.9825 115.008 10.9426 113.36 10.916L113.333 12.572ZM117.902 12.6912C119.301 12.7176 120.619 12.7572 121.858 12.8099L121.928 11.1551C120.675 11.1018 119.344 11.0619 117.933 11.0353L117.902 12.6912ZM121.875 12.8104C123.141 12.8368 124.367 12.8764 125.553 12.9291L125.626 11.2744C124.427 11.2211 123.188 11.1812 121.91 11.1546L121.875 12.8104ZM124.761 12.1017V14.6457H126.418V12.1017H124.761ZM125.589 13.8176H114.141V15.4739H125.589V13.8176ZM114.141 13.8176C112.956 13.8176 111.917 14.1404 111.119 14.8689L112.235 16.0921C112.656 15.7076 113.26 15.4739 114.141 15.4739V13.8176ZM111.119 14.8689C110.269 15.6446 109.935 16.804 109.935 18.1437H111.591C111.591 17.0455 111.866 16.4294 112.235 16.0921L111.119 14.8689ZM109.935 18.1437V25.0602H111.591V18.1437H109.935ZM110.75 25.8883L123.828 26.087L123.853 24.431L110.775 24.2322L110.75 25.8883ZM123.012 25.259V27.6837H124.669V25.259H123.012ZM123.828 26.8557L110.75 27.0545L110.775 28.7105L123.853 28.5118L123.828 26.8557ZM109.935 27.8825V34.7592H111.591V27.8825H109.935ZM109.935 34.7592C109.935 35.8054 110.1 36.7315 110.54 37.4275L111.94 36.543C111.743 36.232 111.591 35.6741 111.591 34.7592H109.935ZM110.556 37.4529C111.003 38.1064 111.611 38.5602 112.364 38.7753L112.819 37.1827C112.458 37.0798 112.165 36.8711 111.923 36.5176L110.556 37.4529ZM112.364 38.7753C112.995 38.9556 113.641 39.0456 114.3 39.0456V37.3894C113.794 37.3894 113.301 37.3204 112.819 37.1827L112.364 38.7753ZM114.3 39.0456H125.589V37.3894H114.3V39.0456ZM124.761 38.2175V40.7615H126.418V38.2175H124.761ZM125.536 39.9351C124.324 40.0141 123.046 40.08 121.701 40.1328L121.766 41.7877C123.124 41.7345 124.417 41.6679 125.643 41.5879L125.536 39.9351ZM121.701 40.1328C120.381 40.1856 119.049 40.2251 117.703 40.2515L117.735 41.9075C119.092 41.8809 120.436 41.8409 121.767 41.7877L121.701 40.1328ZM117.702 40.2515C116.377 40.278 115.065 40.3045 113.767 40.331L113.801 41.987C115.099 41.9605 116.411 41.934 117.736 41.9075L117.702 40.2515ZM129.203 41L128.42 40.7317L128.044 41.8281H129.203V41ZM139.22 11.744V10.9159H138.629L138.437 11.4757L139.22 11.744ZM143.275 11.744L144.058 11.4757L143.867 10.9159H143.275V11.744ZM153.292 41V41.8281H154.451L154.075 40.7317L153.292 41ZM150.032 41L149.251 41.2752L149.446 41.8281H150.032V41ZM147.091 32.6525L147.872 32.3773L147.677 31.8244H147.091V32.6525ZM135.325 32.6525V31.8244H134.733L134.541 32.3839L135.325 32.6525ZM132.463 41V41.8281H133.054L133.246 41.2686L132.463 41ZM136.12 29.7905L135.335 29.5268L134.968 30.6186H136.12V29.7905ZM146.296 29.7905V30.6186H147.442L147.082 29.5305L146.296 29.7905ZM141.248 14.5265L142.034 14.2665L141.254 11.9077L140.463 14.2628L141.248 14.5265ZM129.987 41.2683L140.004 12.0122L138.437 11.4757L128.42 40.7317L129.987 41.2683ZM139.22 12.5721H143.275V10.9159H139.22V12.5721ZM142.491 12.0122L152.508 41.2683L154.075 40.7317L144.058 11.4757L142.491 12.0122ZM153.292 40.1719H150.032V41.8281H153.292V40.1719ZM150.813 40.7248L147.872 32.3773L146.31 32.9277L149.251 41.2752L150.813 40.7248ZM147.091 31.8244H135.325V33.4806H147.091V31.8244ZM134.541 32.3839L131.679 40.7314L133.246 41.2686L136.108 32.9211L134.541 32.3839ZM132.463 40.1719H129.203V41.8281H132.463V40.1719ZM136.12 30.6186H146.296V28.9624H136.12V30.6186ZM147.082 29.5305L142.034 14.2665L140.461 14.7865L145.51 30.0505L147.082 29.5305ZM140.463 14.2628L135.335 29.5268L136.905 30.0542L142.033 14.7902L140.463 14.2628ZM163.898 41.159L163.952 40.3326L163.939 40.3318L163.926 40.3313L163.898 41.159ZM161.434 41L161.511 40.1755L161.498 40.1743L161.485 40.1735L161.434 41ZM159.009 40.8013L158.921 41.6247L158.924 41.625L159.009 40.8013ZM157.141 40.523H156.313V41.1949L156.97 41.3334L157.141 40.523ZM157.141 38.0982L157.207 37.2728L156.313 37.2012V38.0982H157.141ZM159.565 38.2572L159.611 37.4304L159.565 38.2572ZM162.626 38.3765L162.606 39.2044L162.607 39.2044L162.626 38.3765ZM169.105 38.0585L169.306 38.8619L169.105 38.0585ZM171.371 36.7467L170.761 36.1872L170.754 36.1942L170.748 36.2014L171.371 36.7467ZM171.212 28.9557L170.616 29.5302L170.621 29.5358L170.627 29.5413L171.212 28.9557ZM159.049 26.2925L158.538 26.9441L158.544 26.9489L159.049 26.2925ZM159.247 13.2545L159.759 13.9057V13.9057L159.247 13.2545ZM168.39 11.6645L168.308 12.4885L168.318 12.4895L168.328 12.4903L168.39 11.6645ZM171.451 11.9825L171.34 12.8032L171.352 12.8048L171.364 12.8061L171.451 11.9825ZM173.955 12.3402H174.783V11.6613L174.117 11.5282L173.955 12.3402ZM173.955 14.765L173.88 15.5897L174.783 15.6718V14.765H173.955ZM169.98 14.4867L169.935 15.3136L169.936 15.3137L169.98 14.4867ZM162.745 14.8047L162.986 15.5973L162.997 15.594L163.007 15.5904L162.745 14.8047ZM160.718 16.2755L160.029 15.8161L160.025 15.8223L160.718 16.2755ZM161.314 23.9472L161.798 23.2748L161.314 23.9472ZM172.206 25.736L171.799 26.4573L172.206 25.736ZM174.511 28.1607L173.767 28.5235L173.771 28.5311L174.511 28.1607ZM173.995 38.456L173.348 37.9386L173.34 37.9487L173.995 38.456ZM170.656 40.6423L170.43 39.8454L170.426 39.8466L170.656 40.6423ZM166.005 40.4104C165.445 40.4104 164.762 40.3849 163.952 40.3326L163.845 41.9854C164.678 42.0391 165.399 42.0666 166.005 42.0666V40.4104ZM163.926 40.3313C163.149 40.3054 162.344 40.2535 161.511 40.1755L161.356 41.8245C162.22 41.9055 163.058 41.9596 163.871 41.9867L163.926 40.3313ZM161.485 40.1735C160.648 40.1211 159.85 40.0558 159.094 39.9775L158.924 41.625C159.704 41.7057 160.524 41.7729 161.382 41.8265L161.485 40.1735ZM159.097 39.9778C158.372 39.9001 157.779 39.811 157.311 39.7126L156.97 41.3334C157.51 41.447 158.162 41.5434 158.921 41.6247L159.097 39.9778ZM157.969 40.523V38.0982H156.313V40.523H157.969ZM157.075 38.9237C157.746 38.9774 158.561 39.0309 159.52 39.0841L159.611 37.4304C158.661 37.3776 157.86 37.3251 157.207 37.2728L157.075 38.9237ZM159.52 39.0841C160.483 39.1376 161.512 39.1777 162.606 39.2044L162.646 37.5486C161.567 37.5223 160.556 37.4829 159.611 37.4304L159.52 39.0841ZM162.607 39.2044C163.726 39.231 164.819 39.2444 165.886 39.2444V37.5881C164.833 37.5881 163.753 37.575 162.646 37.5486L162.607 39.2044ZM165.886 39.2444C167.132 39.2444 168.274 39.1199 169.306 38.8619L168.905 37.2551C168.028 37.4741 167.024 37.5881 165.886 37.5881V39.2444ZM169.306 38.8619C170.397 38.5893 171.309 38.075 171.994 37.2921L170.748 36.2014C170.32 36.6905 169.722 37.0507 168.905 37.2551L169.306 38.8619ZM171.982 37.3063C172.751 36.4676 173.074 35.324 173.074 34.004H171.418C171.418 35.069 171.158 35.7539 170.761 36.1872L171.982 37.3063ZM173.074 34.004V32.0165H171.418V34.004H173.074ZM173.074 32.0165C173.074 30.5319 172.694 29.2665 171.798 28.3702L170.627 29.5413C171.108 30.023 171.418 30.7981 171.418 32.0165H173.074ZM171.809 28.3813C170.896 27.4335 169.514 27.0544 167.873 27.0544V28.7106C169.306 28.7106 170.15 29.047 170.616 29.5302L171.809 28.3813ZM167.873 27.0544H164.733V28.7106H167.873V27.0544ZM164.733 27.0544C162.435 27.0544 160.74 26.5488 159.554 25.6361L158.544 26.9489C160.113 28.1562 162.208 28.7106 164.733 28.7106V27.0544ZM159.56 25.6409C158.494 24.8051 157.85 23.2831 157.85 20.807H156.193C156.193 23.5249 156.9 25.6599 158.538 26.9441L159.56 25.6409ZM157.85 20.807V19.1375H156.193V20.807H157.85ZM157.85 19.1375C157.85 16.5141 158.554 14.8524 159.759 13.9057L158.736 12.6033C156.973 13.9886 156.193 16.2489 156.193 19.1375H157.85ZM159.759 13.9057C161.046 12.8947 162.933 12.3336 165.528 12.3336V10.6774C162.717 10.6774 160.417 11.2823 158.736 12.6033L159.759 13.9057ZM165.528 12.3336C166.343 12.3336 167.268 12.3846 168.308 12.4885L168.472 10.8405C167.392 10.7324 166.409 10.6774 165.528 10.6774V12.3336ZM168.328 12.4903C169.373 12.5687 170.377 12.673 171.34 12.8032L171.562 11.1618C170.564 11.027 169.527 10.9193 168.452 10.8387L168.328 12.4903ZM171.364 12.8061C172.357 12.9106 173.164 13.0266 173.793 13.1523L174.117 11.5282C173.421 11.3889 172.559 11.2664 171.537 11.1589L171.364 12.8061ZM173.127 12.3402V14.765H174.783V12.3402H173.127ZM174.03 13.9403C172.851 13.8331 171.516 13.7397 170.024 13.6598L169.936 15.3137C171.412 15.3928 172.727 15.4849 173.88 15.5897L174.03 13.9403ZM170.025 13.6598C168.554 13.5796 167.161 13.5394 165.846 13.5394V15.1956C167.128 15.1956 168.491 15.2349 169.935 15.3136L170.025 13.6598ZM165.846 13.5394C164.589 13.5394 163.463 13.6926 162.484 14.0191L163.007 15.5904C163.777 15.3339 164.718 15.1956 165.846 15.1956V13.5394ZM162.505 14.0122C161.46 14.3291 160.62 14.9304 160.029 15.8161L161.407 16.7349C161.771 16.1895 162.282 15.8104 162.986 15.5973L162.505 14.0122ZM160.025 15.8223C159.449 16.7031 159.214 17.8826 159.214 19.2567H160.871C160.871 18.0339 161.086 17.2259 161.411 16.7287L160.025 15.8223ZM159.214 19.2567V20.6082H160.871V19.2567H159.214ZM159.214 20.6082C159.214 22.3408 159.668 23.7837 160.831 24.6197L161.798 23.2748C161.265 22.8917 160.871 22.1087 160.871 20.6082H159.214ZM160.831 24.6197C161.87 25.3665 163.243 25.6896 164.852 25.6896V24.0334C163.441 24.0334 162.455 23.747 161.798 23.2748L160.831 24.6197ZM164.852 25.6896H168.231V24.0334H164.852V25.6896ZM168.231 25.6896C169.754 25.6896 170.927 25.9652 171.799 26.4573L172.613 25.0147C171.418 24.3408 169.941 24.0334 168.231 24.0334V25.6896ZM171.799 26.4573C172.691 26.9606 173.34 27.646 173.767 28.5234L175.256 27.7981C174.676 26.6085 173.788 25.6774 172.613 25.0147L171.799 26.4573ZM173.771 28.5311C174.207 29.4044 174.439 30.4397 174.439 31.6587H176.095C176.095 30.2278 175.823 28.9311 175.252 27.7904L173.771 28.5311ZM174.439 31.6587V33.9245H176.095V31.6587H174.439ZM174.439 33.9245C174.439 35.7787 174.036 37.0784 173.348 37.9387L174.641 38.9733C175.649 37.7136 176.095 35.9923 176.095 33.9245H174.439ZM173.34 37.9487C172.637 38.8563 171.68 39.4916 170.43 39.8454L170.881 41.4391C172.44 40.9979 173.71 40.1757 174.649 38.9633L173.34 37.9487ZM170.426 39.8466C169.136 40.2187 167.665 40.4104 166.005 40.4104V42.0666C167.79 42.0666 169.419 41.8608 170.885 41.4379L170.426 39.8466ZM188.31 41H187.482V41.8281H188.31V41ZM188.31 31.301H189.138V31.1141L189.058 30.9453L188.31 31.301ZM179.008 11.744V10.9159H177.697L178.26 12.0997L179.008 11.744ZM182.307 11.744L183.058 11.3942L182.835 10.9159H182.307V11.744ZM189.939 28.121L189.189 28.4708L189.939 30.0815L190.69 28.4708L189.939 28.121ZM197.571 11.744V10.9159H197.044L196.821 11.3942L197.571 11.744ZM200.751 11.744L201.5 12.0984L202.06 10.9159H200.751V11.744ZM191.49 31.301L190.741 30.9466L190.662 31.1148V31.301H191.49ZM191.49 41V41.8281H192.318V41H191.49ZM189.138 41V31.301H187.482V41H189.138ZM189.058 30.9453L179.756 11.3883L178.26 12.0997L187.562 31.6567L189.058 30.9453ZM179.008 12.5721H182.307V10.9159H179.008V12.5721ZM181.557 12.0938L189.189 28.4708L190.69 27.7712L183.058 11.3942L181.557 12.0938ZM190.69 28.4708L198.322 12.0938L196.821 11.3942L189.189 27.7712L190.69 28.4708ZM197.571 12.5721H200.751V10.9159H197.571V12.5721ZM200.003 11.3896L190.741 30.9466L192.238 31.6554L201.5 12.0984L200.003 11.3896ZM190.662 31.301V41H192.318V31.301H190.662ZM191.49 40.1719H188.31V41.8281H191.49V40.1719Z" fill="#FFF301"/>
</svg>
