<svg width="31" height="30" viewBox="0 0 31 30" fill="none" xmlns="http://www.w3.org/2000/svg">
<g id="bx:bxl-mastercard">
<path id="Vector" d="M15.1293 21.2063C15.1888 21.2571 15.2532 21.3079 15.3164 21.3574C14.0611 22.1907 12.5875 22.6345 11.0808 22.633C10.0765 22.6339 9.08191 22.4367 8.15387 22.0528C7.22583 21.6689 6.38257 21.1059 5.67231 20.3958C4.96204 19.6858 4.39871 18.8427 4.01453 17.9148C3.63035 16.9869 3.43286 15.9923 3.43335 14.988C3.43322 13.6048 3.80824 12.2475 4.51848 11.0606C5.22872 9.87362 6.24758 8.90153 7.46656 8.24781C8.68554 7.5941 10.059 7.28323 11.4407 7.34832C12.8224 7.4134 14.1605 7.85201 15.3126 8.61742C15.2507 8.67067 15.1888 8.71897 15.1417 8.77346C14.249 9.5443 13.5328 10.4983 13.0417 11.5707C12.5506 12.6431 12.2962 13.8086 12.2958 14.988C12.2958 17.3721 13.3274 19.6385 15.1293 21.2063ZM20.5303 7.34181C19.0249 7.33888 17.5525 7.78283 16.2997 8.61742C16.3604 8.67067 16.4223 8.71897 16.4694 8.77346C18.28 10.3376 19.3166 12.6053 19.3166 14.988C19.3166 17.3708 18.2825 19.636 16.483 21.2063C16.4223 21.2571 16.3579 21.3079 16.296 21.3574C17.5502 22.191 19.0231 22.6348 20.529 22.633C21.5412 22.646 22.546 22.4578 23.4849 22.0795C24.4238 21.7011 25.2783 21.1401 25.9987 20.4289C26.7191 19.7177 27.2911 18.8705 27.6816 17.9366C28.072 17.0026 28.2731 16.0004 28.2732 14.9881C28.2733 13.9757 28.0723 12.9735 27.682 12.0395C27.2918 11.1054 26.7199 10.2582 25.9996 9.54687C25.2793 8.83557 24.4249 8.27438 23.4861 7.89585C22.5472 7.51733 21.5425 7.32901 20.5303 7.34181ZM15.8055 8.98152C14.895 9.69545 14.1591 10.6074 13.6535 11.6481C13.148 12.6888 12.8861 13.831 12.8877 14.988C12.8853 16.1457 13.1469 17.2887 13.6525 18.3302C14.1581 19.3716 14.8944 20.2841 15.8055 20.9983C16.7164 20.2838 17.4527 19.3713 17.9584 18.3299C18.4642 17.2886 18.7262 16.1457 18.7246 14.988C18.7263 13.8309 18.4643 12.6886 17.9585 11.6478C17.4527 10.607 16.7164 9.6952 15.8055 8.98152Z" fill="#F823A1"/>
</g>
</svg>
