<svg width="36" height="25" viewBox="0 0 36 25" fill="none" xmlns="http://www.w3.org/2000/svg">
<path id="Vector" fill-rule="evenodd" clip-rule="evenodd" d="M8.9872 3.67377L0 12.5C1.79761 14.2655 3.85109 15.7533 6.08998 16.9173C6.70882 18.5295 7.67883 20.0414 9 21.3389C13.9706 26.2204 22.0295 26.2204 27 21.3389C28.3212 20.0414 29.2912 18.5295 29.9101 16.9172C32.1489 15.7533 34.2024 14.2655 36 12.5L27.0201 3.68095C27.0134 3.67435 27.0068 3.66775 27 3.66116C22.0295 -1.22039 13.9706 -1.22039 9 3.66116C8.99574 3.66537 8.99147 3.66956 8.9872 3.67377ZM26.14 18.5097C23.521 19.3778 20.7717 19.8223 18 19.8223C15.2283 19.8223 12.479 19.3778 9.86004 18.5097C10.1438 18.8795 10.4571 19.2343 10.8 19.5711C14.7765 23.4764 21.2235 23.4764 25.2 19.5711C25.5429 19.2343 25.8563 18.8795 26.14 18.5097ZM10.9846 5.25215C11.6599 5.69028 12.3779 6.0652 13.1292 6.37086C14.6734 6.99904 16.3285 7.32236 18 7.32236C19.6715 7.32236 21.3266 6.99904 22.8708 6.37086C23.6221 6.0652 24.3401 5.69027 25.0155 5.25213C21.0886 1.58262 14.9114 1.58262 10.9846 5.25215Z" fill="#3B4158"/>
</svg>
