<svg width="33" height="33" viewBox="0 0 33 33" fill="none" xmlns="http://www.w3.org/2000/svg">
<g id="PencilSimple" clip-path="url(#clip0_3234_4304)">
<path id="Vector" d="M11.8718 27.5002H6.28552C6.02031 27.5002 5.76595 27.3948 5.57842 27.2073C5.39088 27.0197 5.28552 26.7654 5.28552 26.5002V20.9139C5.28565 20.649 5.39084 20.3951 5.57802 20.2077L20.993 4.79266C21.1805 4.60527 21.4348 4.5 21.6999 4.5C21.965 4.5 22.2193 4.60527 22.4068 4.79266L27.993 10.3752C28.1804 10.5627 28.2857 10.8169 28.2857 11.082C28.2857 11.3471 28.1804 11.6014 27.993 11.7889L12.578 27.2077C12.3906 27.3948 12.1366 27.5 11.8718 27.5002Z" stroke="#1C1C1C" stroke-width="2" stroke-linecap="round" stroke-linejoin="round"/>
<path id="Vector_2" d="M17.2855 8.5L24.2855 15.5" stroke="#1C1C1C" stroke-width="2" stroke-linecap="round" stroke-linejoin="round"/>
</g>
<defs>
<clipPath id="clip0_3234_4304">
<rect width="32" height="32" fill="white" transform="translate(0.285522 0.5)"/>
</clipPath>
</defs>
</svg>
