<svg width="35" height="35" viewBox="0 0 35 35" fill="none" xmlns="http://www.w3.org/2000/svg">
<g id="bx:bxl-visa">
<path id="Vector" d="M24.0135 13.4115C23.3385 13.1655 22.625 13.0421 21.9066 13.047C19.5835 13.047 17.9427 14.2173 17.9311 15.8973C17.9166 17.1314 19.097 17.8269 19.99 18.2393C20.9062 18.6633 21.2126 18.9305 21.2097 19.3094C21.2039 19.8859 20.4779 20.1472 19.8027 20.1472C18.8749 20.1472 18.3681 20.018 17.5884 19.6942L17.2995 19.5592L16.9699 21.4932C17.5347 21.7284 18.5525 21.9303 19.6038 21.9477C22.0736 21.9477 23.6882 20.7846 23.7071 18.9973C23.7274 18.0114 23.0885 17.2665 21.744 16.6508C20.9265 16.2515 20.4198 15.9844 20.4198 15.5793C20.4198 15.2206 20.8539 14.8373 21.7614 14.8373C22.3654 14.8227 22.9656 14.936 23.5227 15.1698L23.7405 15.2671L24.0701 13.3984L24.0135 13.4115ZM30.0421 13.2038H28.2271C27.6623 13.2038 27.2369 13.3592 26.99 13.9197L23.4995 21.8272H25.9693L26.463 20.5305L29.4773 20.5334C29.5484 20.8369 29.7662 21.8272 29.7662 21.8272H31.9442L30.0421 13.2038ZM14.5901 13.1312H16.9437L15.4714 21.7589H13.1207L14.5901 13.1283V13.1312ZM8.61516 17.8865L8.85909 19.0844L11.159 13.2038H13.6521L9.94808 21.8156H7.46083L5.42805 14.5237C5.39513 14.4034 5.31781 14.3002 5.21171 14.2347C4.47904 13.8563 3.70272 13.569 2.90015 13.3795L2.93209 13.198H6.72032C7.23432 13.2183 7.64814 13.3795 7.78608 13.9284L8.61371 17.8908V17.8865H8.61516ZM27.1381 18.7664L28.0761 16.3532C28.0645 16.3793 28.2692 15.8552 28.3883 15.5314L28.5495 16.2762L29.094 18.7649H27.1367V18.7664H27.1381Z" fill="#F823A1"/>
</g>
</svg>
