<svg xmlns="http://www.w3.org/2000/svg" width="24" height="25" viewBox="0 0 24 25" fill="none">
  <path opacity="0.1" d="M11.7704 0.907227C5.31295 0.907227 0.078125 6.14205 0.078125 12.5995C0.078125 19.057 5.31295 24.2918 11.7704 24.2918C18.2279 24.2918 23.4627 19.057 23.4627 12.5995C23.4552 6.14517 18.2248 0.914744 11.7704 0.907227Z" fill="#222222"/>
  <path d="M18.5193 8.89726L11.8498 17.9481C11.6908 18.1591 11.4536 18.2974 11.1916 18.3318C10.9296 18.3663 10.6647 18.294 10.4565 18.1313L5.69383 14.3235C5.27356 13.9871 5.2055 13.3738 5.54183 12.9535C5.87816 12.5332 6.4915 12.4652 6.91178 12.8015L10.8833 15.9789L16.9506 7.74459C17.1496 7.44604 17.4965 7.28097 17.8536 7.31493C18.2108 7.3489 18.5204 7.57639 18.6595 7.90709C18.7987 8.23779 18.7448 8.61819 18.5193 8.89726Z" fill="#222222"/>
</svg>
